<mxfile host="app.diagrams.net" modified="2022-06-01T16:05:39.616Z" agent="5.0 (X11)" etag="Dk9JcBw952J86m7hRQd3" version="18.2.0" type="github">
  <diagram id="ZWBKsImdjbzt0IpIh4un" name="第 1 页">
    <mxGraphModel dx="981" dy="521" grid="1" gridSize="10" guides="1" tooltips="1" connect="1" arrows="1" fold="1" page="1" pageScale="1" pageWidth="827" pageHeight="1169" math="0" shadow="0">
      <root>
        <mxCell id="0" />
        <mxCell id="1" parent="0" />
        <mxCell id="wr_RbnKL9KUCxHIowZ7S-20" style="edgeStyle=none;rounded=0;orthogonalLoop=1;jettySize=auto;html=1;exitX=1;exitY=1;exitDx=0;exitDy=0;endArrow=classic;endFill=1;" edge="1" parent="1" source="wr_RbnKL9KUCxHIowZ7S-1" target="wr_RbnKL9KUCxHIowZ7S-13">
          <mxGeometry relative="1" as="geometry" />
        </mxCell>
        <mxCell id="wr_RbnKL9KUCxHIowZ7S-21" style="edgeStyle=none;rounded=0;orthogonalLoop=1;jettySize=auto;html=1;exitX=0;exitY=1;exitDx=0;exitDy=0;endArrow=classic;endFill=1;" edge="1" parent="1" source="wr_RbnKL9KUCxHIowZ7S-1" target="wr_RbnKL9KUCxHIowZ7S-16">
          <mxGeometry relative="1" as="geometry" />
        </mxCell>
        <mxCell id="wr_RbnKL9KUCxHIowZ7S-1" value="" style="rounded=0;whiteSpace=wrap;html=1;" vertex="1" parent="1">
          <mxGeometry x="320" y="40" width="120" height="40" as="geometry" />
        </mxCell>
        <mxCell id="wr_RbnKL9KUCxHIowZ7S-3" style="edgeStyle=none;rounded=0;orthogonalLoop=1;jettySize=auto;html=1;exitX=0.25;exitY=0;exitDx=0;exitDy=0;entryX=0.25;entryY=1;entryDx=0;entryDy=0;endArrow=none;endFill=0;" edge="1" parent="1" source="wr_RbnKL9KUCxHIowZ7S-1" target="wr_RbnKL9KUCxHIowZ7S-1">
          <mxGeometry relative="1" as="geometry" />
        </mxCell>
        <mxCell id="wr_RbnKL9KUCxHIowZ7S-4" style="edgeStyle=none;rounded=0;orthogonalLoop=1;jettySize=auto;html=1;exitX=0.75;exitY=0;exitDx=0;exitDy=0;entryX=0.75;entryY=1;entryDx=0;entryDy=0;endArrow=none;endFill=0;" edge="1" parent="1" source="wr_RbnKL9KUCxHIowZ7S-1" target="wr_RbnKL9KUCxHIowZ7S-1">
          <mxGeometry relative="1" as="geometry" />
        </mxCell>
        <mxCell id="wr_RbnKL9KUCxHIowZ7S-35" style="edgeStyle=none;rounded=0;orthogonalLoop=1;jettySize=auto;html=1;exitX=1;exitY=1;exitDx=0;exitDy=0;endArrow=classic;endFill=1;" edge="1" parent="1" source="wr_RbnKL9KUCxHIowZ7S-7" target="wr_RbnKL9KUCxHIowZ7S-32">
          <mxGeometry relative="1" as="geometry" />
        </mxCell>
        <mxCell id="wr_RbnKL9KUCxHIowZ7S-7" value="" style="rounded=0;whiteSpace=wrap;html=1;" vertex="1" parent="1">
          <mxGeometry x="40" y="240" width="120" height="40" as="geometry" />
        </mxCell>
        <mxCell id="wr_RbnKL9KUCxHIowZ7S-8" style="edgeStyle=none;rounded=0;orthogonalLoop=1;jettySize=auto;html=1;exitX=0.25;exitY=0;exitDx=0;exitDy=0;entryX=0.25;entryY=1;entryDx=0;entryDy=0;endArrow=none;endFill=0;" edge="1" source="wr_RbnKL9KUCxHIowZ7S-7" target="wr_RbnKL9KUCxHIowZ7S-7" parent="1">
          <mxGeometry relative="1" as="geometry" />
        </mxCell>
        <mxCell id="wr_RbnKL9KUCxHIowZ7S-9" style="edgeStyle=none;rounded=0;orthogonalLoop=1;jettySize=auto;html=1;exitX=0.75;exitY=0;exitDx=0;exitDy=0;entryX=0.75;entryY=1;entryDx=0;entryDy=0;endArrow=none;endFill=0;" edge="1" source="wr_RbnKL9KUCxHIowZ7S-7" target="wr_RbnKL9KUCxHIowZ7S-7" parent="1">
          <mxGeometry relative="1" as="geometry" />
        </mxCell>
        <mxCell id="wr_RbnKL9KUCxHIowZ7S-31" style="edgeStyle=none;rounded=0;orthogonalLoop=1;jettySize=auto;html=1;exitX=1;exitY=1;exitDx=0;exitDy=0;endArrow=classic;endFill=1;" edge="1" parent="1" source="wr_RbnKL9KUCxHIowZ7S-10" target="wr_RbnKL9KUCxHIowZ7S-28">
          <mxGeometry relative="1" as="geometry" />
        </mxCell>
        <mxCell id="wr_RbnKL9KUCxHIowZ7S-10" value="" style="rounded=0;whiteSpace=wrap;html=1;" vertex="1" parent="1">
          <mxGeometry x="190" y="240" width="120" height="40" as="geometry" />
        </mxCell>
        <mxCell id="wr_RbnKL9KUCxHIowZ7S-11" style="edgeStyle=none;rounded=0;orthogonalLoop=1;jettySize=auto;html=1;exitX=0.25;exitY=0;exitDx=0;exitDy=0;entryX=0.25;entryY=1;entryDx=0;entryDy=0;endArrow=none;endFill=0;" edge="1" source="wr_RbnKL9KUCxHIowZ7S-10" target="wr_RbnKL9KUCxHIowZ7S-10" parent="1">
          <mxGeometry relative="1" as="geometry" />
        </mxCell>
        <mxCell id="wr_RbnKL9KUCxHIowZ7S-12" style="edgeStyle=none;rounded=0;orthogonalLoop=1;jettySize=auto;html=1;exitX=0.75;exitY=0;exitDx=0;exitDy=0;entryX=0.75;entryY=1;entryDx=0;entryDy=0;endArrow=none;endFill=0;" edge="1" source="wr_RbnKL9KUCxHIowZ7S-10" target="wr_RbnKL9KUCxHIowZ7S-10" parent="1">
          <mxGeometry relative="1" as="geometry" />
        </mxCell>
        <mxCell id="wr_RbnKL9KUCxHIowZ7S-27" style="edgeStyle=none;rounded=0;orthogonalLoop=1;jettySize=auto;html=1;exitX=0;exitY=1;exitDx=0;exitDy=0;endArrow=classic;endFill=1;" edge="1" parent="1" source="wr_RbnKL9KUCxHIowZ7S-13" target="wr_RbnKL9KUCxHIowZ7S-24">
          <mxGeometry relative="1" as="geometry" />
        </mxCell>
        <mxCell id="wr_RbnKL9KUCxHIowZ7S-13" value="" style="rounded=0;whiteSpace=wrap;html=1;" vertex="1" parent="1">
          <mxGeometry x="520" y="160" width="120" height="40" as="geometry" />
        </mxCell>
        <mxCell id="wr_RbnKL9KUCxHIowZ7S-14" style="edgeStyle=none;rounded=0;orthogonalLoop=1;jettySize=auto;html=1;exitX=0.25;exitY=0;exitDx=0;exitDy=0;entryX=0.25;entryY=1;entryDx=0;entryDy=0;endArrow=none;endFill=0;" edge="1" source="wr_RbnKL9KUCxHIowZ7S-13" target="wr_RbnKL9KUCxHIowZ7S-13" parent="1">
          <mxGeometry relative="1" as="geometry" />
        </mxCell>
        <mxCell id="wr_RbnKL9KUCxHIowZ7S-15" style="edgeStyle=none;rounded=0;orthogonalLoop=1;jettySize=auto;html=1;exitX=0.75;exitY=0;exitDx=0;exitDy=0;entryX=0.75;entryY=1;entryDx=0;entryDy=0;endArrow=none;endFill=0;" edge="1" source="wr_RbnKL9KUCxHIowZ7S-13" target="wr_RbnKL9KUCxHIowZ7S-13" parent="1">
          <mxGeometry relative="1" as="geometry" />
        </mxCell>
        <mxCell id="wr_RbnKL9KUCxHIowZ7S-22" style="edgeStyle=none;rounded=0;orthogonalLoop=1;jettySize=auto;html=1;exitX=0;exitY=1;exitDx=0;exitDy=0;endArrow=classic;endFill=1;" edge="1" parent="1" source="wr_RbnKL9KUCxHIowZ7S-16" target="wr_RbnKL9KUCxHIowZ7S-7">
          <mxGeometry relative="1" as="geometry" />
        </mxCell>
        <mxCell id="wr_RbnKL9KUCxHIowZ7S-23" style="edgeStyle=none;rounded=0;orthogonalLoop=1;jettySize=auto;html=1;exitX=1;exitY=1;exitDx=0;exitDy=0;endArrow=classic;endFill=1;" edge="1" parent="1" source="wr_RbnKL9KUCxHIowZ7S-16" target="wr_RbnKL9KUCxHIowZ7S-10">
          <mxGeometry relative="1" as="geometry" />
        </mxCell>
        <mxCell id="wr_RbnKL9KUCxHIowZ7S-16" value="" style="rounded=0;whiteSpace=wrap;html=1;" vertex="1" parent="1">
          <mxGeometry x="120" y="160" width="120" height="40" as="geometry" />
        </mxCell>
        <mxCell id="wr_RbnKL9KUCxHIowZ7S-17" style="edgeStyle=none;rounded=0;orthogonalLoop=1;jettySize=auto;html=1;exitX=0.25;exitY=0;exitDx=0;exitDy=0;entryX=0.25;entryY=1;entryDx=0;entryDy=0;endArrow=none;endFill=0;" edge="1" source="wr_RbnKL9KUCxHIowZ7S-16" target="wr_RbnKL9KUCxHIowZ7S-16" parent="1">
          <mxGeometry relative="1" as="geometry" />
        </mxCell>
        <mxCell id="wr_RbnKL9KUCxHIowZ7S-18" style="edgeStyle=none;rounded=0;orthogonalLoop=1;jettySize=auto;html=1;exitX=0.75;exitY=0;exitDx=0;exitDy=0;entryX=0.75;entryY=1;entryDx=0;entryDy=0;endArrow=none;endFill=0;" edge="1" source="wr_RbnKL9KUCxHIowZ7S-16" target="wr_RbnKL9KUCxHIowZ7S-16" parent="1">
          <mxGeometry relative="1" as="geometry" />
        </mxCell>
        <mxCell id="wr_RbnKL9KUCxHIowZ7S-39" style="edgeStyle=none;rounded=0;orthogonalLoop=1;jettySize=auto;html=1;exitX=1;exitY=1;exitDx=0;exitDy=0;endArrow=classic;endFill=1;" edge="1" parent="1" source="wr_RbnKL9KUCxHIowZ7S-24" target="wr_RbnKL9KUCxHIowZ7S-36">
          <mxGeometry relative="1" as="geometry" />
        </mxCell>
        <mxCell id="wr_RbnKL9KUCxHIowZ7S-24" value="" style="rounded=0;whiteSpace=wrap;html=1;" vertex="1" parent="1">
          <mxGeometry x="440" y="240" width="120" height="40" as="geometry" />
        </mxCell>
        <mxCell id="wr_RbnKL9KUCxHIowZ7S-25" style="edgeStyle=none;rounded=0;orthogonalLoop=1;jettySize=auto;html=1;exitX=0.25;exitY=0;exitDx=0;exitDy=0;entryX=0.25;entryY=1;entryDx=0;entryDy=0;endArrow=none;endFill=0;" edge="1" source="wr_RbnKL9KUCxHIowZ7S-24" target="wr_RbnKL9KUCxHIowZ7S-24" parent="1">
          <mxGeometry relative="1" as="geometry" />
        </mxCell>
        <mxCell id="wr_RbnKL9KUCxHIowZ7S-26" style="edgeStyle=none;rounded=0;orthogonalLoop=1;jettySize=auto;html=1;exitX=0.75;exitY=0;exitDx=0;exitDy=0;entryX=0.75;entryY=1;entryDx=0;entryDy=0;endArrow=none;endFill=0;" edge="1" source="wr_RbnKL9KUCxHIowZ7S-24" target="wr_RbnKL9KUCxHIowZ7S-24" parent="1">
          <mxGeometry relative="1" as="geometry" />
        </mxCell>
        <mxCell id="wr_RbnKL9KUCxHIowZ7S-28" value="" style="rounded=0;whiteSpace=wrap;html=1;" vertex="1" parent="1">
          <mxGeometry x="280" y="320" width="120" height="40" as="geometry" />
        </mxCell>
        <mxCell id="wr_RbnKL9KUCxHIowZ7S-29" style="edgeStyle=none;rounded=0;orthogonalLoop=1;jettySize=auto;html=1;exitX=0.25;exitY=0;exitDx=0;exitDy=0;entryX=0.25;entryY=1;entryDx=0;entryDy=0;endArrow=none;endFill=0;" edge="1" source="wr_RbnKL9KUCxHIowZ7S-28" target="wr_RbnKL9KUCxHIowZ7S-28" parent="1">
          <mxGeometry relative="1" as="geometry" />
        </mxCell>
        <mxCell id="wr_RbnKL9KUCxHIowZ7S-30" style="edgeStyle=none;rounded=0;orthogonalLoop=1;jettySize=auto;html=1;exitX=0.75;exitY=0;exitDx=0;exitDy=0;entryX=0.75;entryY=1;entryDx=0;entryDy=0;endArrow=none;endFill=0;" edge="1" source="wr_RbnKL9KUCxHIowZ7S-28" target="wr_RbnKL9KUCxHIowZ7S-28" parent="1">
          <mxGeometry relative="1" as="geometry" />
        </mxCell>
        <mxCell id="wr_RbnKL9KUCxHIowZ7S-32" value="" style="rounded=0;whiteSpace=wrap;html=1;" vertex="1" parent="1">
          <mxGeometry x="120" y="320" width="120" height="40" as="geometry" />
        </mxCell>
        <mxCell id="wr_RbnKL9KUCxHIowZ7S-33" style="edgeStyle=none;rounded=0;orthogonalLoop=1;jettySize=auto;html=1;exitX=0.25;exitY=0;exitDx=0;exitDy=0;entryX=0.25;entryY=1;entryDx=0;entryDy=0;endArrow=none;endFill=0;" edge="1" source="wr_RbnKL9KUCxHIowZ7S-32" target="wr_RbnKL9KUCxHIowZ7S-32" parent="1">
          <mxGeometry relative="1" as="geometry" />
        </mxCell>
        <mxCell id="wr_RbnKL9KUCxHIowZ7S-34" style="edgeStyle=none;rounded=0;orthogonalLoop=1;jettySize=auto;html=1;exitX=0.75;exitY=0;exitDx=0;exitDy=0;entryX=0.75;entryY=1;entryDx=0;entryDy=0;endArrow=none;endFill=0;" edge="1" source="wr_RbnKL9KUCxHIowZ7S-32" target="wr_RbnKL9KUCxHIowZ7S-32" parent="1">
          <mxGeometry relative="1" as="geometry" />
        </mxCell>
        <mxCell id="wr_RbnKL9KUCxHIowZ7S-36" value="" style="rounded=0;whiteSpace=wrap;html=1;" vertex="1" parent="1">
          <mxGeometry x="520" y="320" width="120" height="40" as="geometry" />
        </mxCell>
        <mxCell id="wr_RbnKL9KUCxHIowZ7S-37" style="edgeStyle=none;rounded=0;orthogonalLoop=1;jettySize=auto;html=1;exitX=0.25;exitY=0;exitDx=0;exitDy=0;entryX=0.25;entryY=1;entryDx=0;entryDy=0;endArrow=none;endFill=0;" edge="1" source="wr_RbnKL9KUCxHIowZ7S-36" target="wr_RbnKL9KUCxHIowZ7S-36" parent="1">
          <mxGeometry relative="1" as="geometry" />
        </mxCell>
        <mxCell id="wr_RbnKL9KUCxHIowZ7S-38" style="edgeStyle=none;rounded=0;orthogonalLoop=1;jettySize=auto;html=1;exitX=0.75;exitY=0;exitDx=0;exitDy=0;entryX=0.75;entryY=1;entryDx=0;entryDy=0;endArrow=none;endFill=0;" edge="1" source="wr_RbnKL9KUCxHIowZ7S-36" target="wr_RbnKL9KUCxHIowZ7S-36" parent="1">
          <mxGeometry relative="1" as="geometry" />
        </mxCell>
      </root>
    </mxGraphModel>
  </diagram>
</mxfile>
